<?xml version="1.0" encoding="utf-8"?>
<!-- Uploaded to: SVG Repo, www.svgrepo.com, Generator: SVG Repo Mixer Tools -->
<svg fill="#000000" width="800px" height="800px" viewBox="0 0 32 32" version="1.1" xmlns="http://www.w3.org/2000/svg">
<title>repair</title>
<path d="M27.472 25.67l3.511 2.664c0.764-1.983 0.2-4.311-1.579-5.661-1.368-1.038-3.108-1.248-4.61-0.713l-0.532-0.403-0.070-0.132c0.37-0.526 0.691-1.076 0.961-1.644l2.417-0.067 0.495-1.58-1.953-1.438c0.095-0.591 0.142-1.189 0.143-1.786l2.167-1.1-0.229-1.64-2.392-0.468c-0.2-0.688-0.466-1.362-0.798-2.011l1.426-1.973-0.954-1.354-2.347 0.682c-0.029-0.031-0.058-0.062-0.088-0.093-0.375-0.388-0.771-0.743-1.184-1.066l0.451-2.321-1.435-0.827-1.781 1.551c-0.577-0.232-1.169-0.415-1.769-0.549l-0.584-2.291-1.651-0.135-0.951 2.172c-0.492 0.030-0.982 0.091-1.468 0.185l-1.454-1.877-1.568 0.533-0.008 2.39c-0.664 0.342-1.303 0.753-1.904 1.236l-2.215-0.998-1.134 1.207 1.134 2.151c-0.366 0.521-0.683 1.067-0.951 1.63l-2.433 0.067-0.495 1.58 1.966 1.448c-0.094 0.586-0.142 1.179-0.144 1.772l-2.18 1.106 0.229 1.64 2.394 0.468c0.143 0.498 0.319 0.989 0.531 1.468l-1.58 1.959 0.881 1.402 2.453-0.573c0.154 0.181 0.315 0.359 0.482 0.532 0.353 0.365 0.723 0.701 1.107 1.008l-0.477 2.459 1.435 0.827 1.873-1.632c0.538 0.216 1.089 0.389 1.649 0.519l0.612 2.401 1.651 0.135 0.991-2.263c0.686-0.041 1.369-0.144 2.041-0.308l1.576 1.825 1.538-0.616-0.083-1.685 0.974 0.739c-0.115 1.597 0.543 3.233 1.909 4.271 1.778 1.349 4.172 1.266 5.877-0.004l-3.51-2.663c-0.619-0.469-0.762-1.358-0.312-1.952s1.328-0.672 1.946-0.202zM13.845 23.736c-1.985-0.224-3.892-1.12-5.388-2.669-3.421-3.538-3.323-9.167 0.216-12.587s9.17-3.36 12.59 0.178c3.012 3.115 3.293 7.878 0.903 11.308l-5.822-4.417c0.11-1.589-0.561-3.21-1.928-4.247-1.778-1.349-4.172-1.266-5.877 0.004l3.51 2.663c0.618 0.469 0.78 1.334 0.33 1.929s-1.346 0.696-1.964 0.226l-3.51-2.663c-0.763 1.983-0.2 4.311 1.579 5.661 1.367 1.036 3.121 1.229 4.628 0.688l4.617 3.503c-1.254 0.428-2.582 0.569-3.883 0.422z"></path>
</svg>